<?xml version="1.0" encoding="utf-8"?>
<!-- Generator: Adobe Illustrator 21.0.2, SVG Export Plug-In . SVG Version: 6.00 Build 0)  -->
<!-- The Lexmark Logo  -->
<svg version="1.1" id="Artwork" xmlns="http://www.w3.org/2000/svg" xmlns:xlink="http://www.w3.org/1999/xlink" x="0px" y="0px"
	 viewBox="0 0 1374 283.5" style="enable-background:new 0 0 1374 283.5;" xml:space="preserve">
<style type="text/css">
	.st0{fill:#FFFFFF;}
	.st1{fill:#008A44;}
	.st2{fill:#3AF23A;}
	.st3{fill:#006446;}
	.st4{fill:#00C425;}
</style>
<path class="st0" d="M1374,112.5l-50.1,45.6L1374,204v26.4h-1.6l-74.4-67.5V227h-21.6V32.7h21.6v121.4l74.1-67.4h2L1374,112.5
	L1374,112.5z M401.5,227.1h110v-21.7h-87.6V39.1h-22.4V227.1z M587.6,87c-33.8,0-64.6,27.5-64.6,71.7c0,43,28.2,71.4,68.6,71.4
	c18,0,34.8-4.5,49.8-15.5v-23.2c-15.8,13.2-33.3,18.8-49.1,18.8c-24.4,0-45.8-15.1-47.8-43.3h102.8c0.3-2.8,0.8-8.8,0.8-11.1
	C648.2,110.6,620.9,87,587.6,87z M587.9,106.6c19.1,0,38.5,12.3,39.2,41.6h-82.5C545.9,125.6,563.2,106.6,587.9,106.6z M949.7,87
	c-18.3,0-31.5,9.7-39.4,23.9C903.7,95.6,891.5,87,872,87c-17,0-29.7,9.9-36.6,23.1h-0.5l-2.5-20.3h-17v137.3h21.9v-86.7
	c0-16.8,10.4-32.5,29.5-32.5c18.6,0,26.7,10.9,26.7,30.8V227h21.9v-88.2c0-16,10.7-31,29.2-31c18.8,0,26.9,10.9,26.9,30.8V227h21.9
	v-91.5C993.2,106.8,979.7,87,949.7,87z M1081.5,87c-32.8,0-63.3,27.7-63.3,71.7c0,43.5,30.5,71.4,63.3,71.4
	c20.6,0,39.9-9.7,50.3-28.7h0.3l2.5,25.7h17.8V89.8h-17.8l-2.5,25.7h-0.3C1121.4,96.6,1102.1,87,1081.5,87z M1085.6,107.3
	c25.9,0,45.5,20.8,45.5,51.1c0,30.2-19.6,51.1-45.5,51.1c-25.4,0-45.5-20.6-45.5-50.8C1040.1,127.9,1060.2,107.3,1085.6,107.3z
	 M1245.6,88.2c-12,0-30,5.6-39.4,23.4h-0.2l-2.3-21.9h-17.5v137.3h21.9V148c0-31.8,25.7-41.6,46.8-37.3V89
	C1252,88.5,1249.2,88.2,1245.6,88.2z M787.1,86.7h-1.7L728,143.9l-57.2-57.2H669v27.7l44.1,44.2L669,202.4v28h1.8l57-57.5l57.6,57.5
	h1.8v-28.2l-44.5-44.1l44.5-44.8L787.1,86.7L787.1,86.7z"/>
<polygon class="st1" points="283.5,228 283.5,0 228,0 141.7,86.2 "/>
<polygon class="st2" points="0,55.5 0,283.5 55.5,283.5 141.7,197.2 "/>
<polygon class="st3" points="55.5,283.5 283.5,283.5 283.5,228 197.2,141.7 "/>
<polygon class="st4" points="228,0 0,0 0,55.5 86.2,141.7 "/>
</svg>
